# xmcd CD database file
#
# Track frame offsets:
#	150
#	20232
#	35547
#
# Disc length: 741 seconds
#
# Revision: 0
# Processed by: cddbd v1.5.2PL0 Copyright (c) Steve Scherf et al.
# Submitted via: CDex 1.70beta3
#
DISCID=2102e303
DTITLE=Da-iCE - 恋ごころ
DYEAR=2016
DGENRE=avex
TTITLE0=恋ごころ
TTITLE1=Yes or No
TTITLE2=恋ごころ -English ver.-
EXTD=YEAR: 2016
EXTT0=
EXTT1=
EXTT2=
PLAYORDER=
